<svg width="20" height="14" viewBox="0 0 20 14" fill="none" xmlns="http://www.w3.org/2000/svg">
<path d="M9.99968 9.5C11.3804 9.5 12.4997 8.38071 12.4997 7C12.4997 5.61929 11.3804 4.5 9.99968 4.5C8.61897 4.5 7.49968 5.61929 7.49968 7C7.49968 8.38071 8.61897 9.5 9.99968 9.5Z" fill="#404040"/>
<path d="M19.1731 6.32031C18.1395 4.72188 16.7985 3.36406 15.2954 2.39336C13.6325 1.31836 11.7966 0.75 9.9864 0.75C8.32546 0.75 6.69226 1.22461 5.1321 2.16055C3.54109 3.11484 2.09968 4.50898 0.847727 6.30391C0.706393 6.50676 0.628555 6.74705 0.624104 6.99425C0.619652 7.24144 0.688788 7.48438 0.822727 7.69219C1.85437 9.30664 3.1821 10.6664 4.66179 11.6238C6.32781 12.7031 8.12077 13.25 9.9864 13.25C11.811 13.25 13.6509 12.6863 15.3067 11.6203C16.8091 10.6527 18.1473 9.28984 19.177 7.67812C19.3063 7.47514 19.3747 7.23932 19.374 6.99865C19.3733 6.75797 19.3036 6.52255 19.1731 6.32031ZM9.99968 10.75C9.258 10.75 8.53298 10.5301 7.91629 10.118C7.29961 9.70596 6.81896 9.12029 6.53513 8.43506C6.2513 7.74984 6.17704 6.99584 6.32174 6.26841C6.46643 5.54098 6.82358 4.8728 7.34803 4.34835C7.87248 3.8239 8.54066 3.46675 9.26809 3.32206C9.99552 3.17736 10.7495 3.25162 11.4347 3.53545C12.12 3.81928 12.7056 4.29993 13.1177 4.91661C13.5297 5.5333 13.7497 6.25832 13.7497 7C13.7485 7.99421 13.3531 8.94738 12.6501 9.65039C11.9471 10.3534 10.9939 10.7489 9.99968 10.75Z" fill="#404040"/>
</svg>
